<svg width="34" height="34" viewBox="0 0 34 34" fill="none" xmlns="http://www.w3.org/2000/svg">
<path d="M1 17C1 8.16344 8.16344 1 17 1C25.8366 1 33 8.16344 33 17C33 25.8366 25.8366 33 17 33C8.16344 33 1 25.8366 1 17Z" fill="white" stroke="#E7E7E7" stroke-width="0.5"/>
<path d="M20.439 15.6H19.1992H18.7564V15.1484V13.7484V13.2968H19.1992H20.1291C20.3726 13.2968 20.5719 13.1161 20.5719 12.8452V10.4516C20.5719 10.2032 20.3947 10 20.1291 10H18.5128C16.7638 10 15.5461 11.2645 15.5461 13.1387V15.1032V15.5548H15.1033H13.5978C13.2878 15.5548 13 15.8032 13 16.1645V17.7903C13 18.1065 13.2435 18.4 13.5978 18.4H15.059H15.5018V18.8516V23.3903C15.5018 23.7065 15.7454 24 16.0996 24H18.1807C18.3136 24 18.4243 23.9323 18.5128 23.8419C18.6014 23.7516 18.6678 23.5935 18.6678 23.4581V18.8742V18.4226H19.1328H20.1291C20.4169 18.4226 20.6383 18.2419 20.6826 17.971V17.9484V17.9258L20.9925 16.3677C21.0147 16.2097 20.9925 16.029 20.8597 15.8484C20.8154 15.7355 20.6161 15.6226 20.439 15.6Z" fill="#64748B"/>
</svg>
