<svg width="44" height="48" viewBox="0 0 44 48" fill="none" xmlns="http://www.w3.org/2000/svg">
<g id="fc_logo 1" clip-path="url(#clip0_835_7195)">
<path id="Vector" d="M22.0447 5.06837L0.654701 26.4583L22.0447 47.8483L43.4347 26.4583L22.0447 5.06837Z" fill="black"/>
<path id="Vector_2" d="M21.7167 -0.00231959L-0.00559998 21.72L21.7167 43.4423L43.439 21.72L21.7167 -0.00231959Z" fill="black"/>
<path id="Vector_3" d="M21.7238 0.340033L0.333809 21.73L21.7238 43.12L43.1138 21.73L21.7238 0.340033Z" fill="white"/>
<path id="Vector_4" d="M32.06 19.72H32.44V19.03H32.06V19.72ZM32 20.35C32.23 20.12 32.35 19.79 32.4 19.42L31.72 19.33C31.68 19.63 31.6 19.79 31.51 19.87L31.99 20.35H32ZM31.22 20.68C31.52 20.68 31.79 20.57 32 20.35L31.52 19.87C31.43 19.96 31.34 19.99 31.22 19.99V20.68ZM29.95 20.3C30.25 20.42 30.51 20.51 30.71 20.57C30.9 20.63 31.08 20.67 31.22 20.67V19.98C31.22 19.98 31.21 19.98 31.2 19.98C31.18 19.98 31.16 19.98 31.13 19.97C31.07 19.96 31 19.94 30.91 19.91C30.73 19.85 30.49 19.77 30.2 19.65L29.95 20.29V20.3ZM27.12 19.72C28 19.72 28.95 19.91 29.95 20.3L30.2 19.66C29.13 19.24 28.1 19.03 27.12 19.03V19.72ZM23.69 20.62C24.77 20.02 25.91 19.72 27.12 19.72V19.03C25.79 19.03 24.54 19.36 23.36 20.01L23.69 20.61V20.62ZM21.14 23.14C21.78 22.06 22.63 21.22 23.7 20.62L23.37 20.02C22.19 20.68 21.25 21.6 20.56 22.79L21.15 23.14H21.14ZM20.2 26.57C20.2 25.37 20.51 24.22 21.14 23.14L20.55 22.8C19.86 23.99 19.51 25.25 19.51 26.58H20.2V26.57ZM21.05 29.8C20.48 28.79 20.2 27.71 20.2 26.57H19.51C19.51 27.83 19.82 29.02 20.44 30.14L21.04 29.81L21.05 29.8ZM23.46 32.11C22.42 31.57 21.62 30.8 21.05 29.8L20.45 30.14C21.08 31.26 21.98 32.13 23.14 32.72L23.46 32.11ZM27.08 32.92C25.71 32.92 24.5 32.65 23.46 32.11L23.15 32.72C24.31 33.32 25.62 33.61 27.09 33.61V32.92H27.08ZM29.77 32.43C29.02 32.75 28.13 32.92 27.08 32.92V33.61C28.19 33.61 29.18 33.43 30.04 33.06L29.77 32.43ZM31.99 30.81C31.27 31.56 30.53 32.1 29.77 32.43L30.04 33.06C30.9 32.69 31.71 32.09 32.48 31.29L31.98 30.82L31.99 30.81ZM31.89 29.9V31.05H32.58V29.9H31.89ZM30.19 32.09C30.94 31.7 31.71 31.03 32.49 30.12L31.97 29.67C31.21 30.55 30.51 31.14 29.87 31.48L30.19 32.09ZM27.74 32.68C28.63 32.68 29.45 32.49 30.19 32.09L29.87 31.48C29.23 31.82 28.52 31.99 27.74 31.99V32.68ZM25.04 31.86C25.75 32.41 26.66 32.68 27.74 32.68V31.99C26.78 31.99 26.03 31.76 25.46 31.32L25.04 31.86ZM23.51 29.48C23.83 30.5 24.33 31.31 25.04 31.86L25.46 31.32C24.89 30.87 24.45 30.2 24.17 29.27L23.51 29.47V29.48ZM23.04 26.13C23.04 27.35 23.19 28.47 23.51 29.48L24.17 29.28C23.88 28.34 23.73 27.29 23.73 26.13H23.04ZM23.68 22.71C23.25 23.74 23.04 24.89 23.04 26.13H23.73C23.73 24.96 23.93 23.91 24.32 22.97L23.69 22.71H23.68ZM25.32 20.69C24.57 21.2 24.03 21.88 23.68 22.71L24.31 22.97C24.6 22.26 25.07 21.69 25.71 21.25L25.32 20.69ZM27.8 19.91C26.9 19.91 26.07 20.17 25.32 20.69L25.71 21.25C26.35 20.81 27.04 20.6 27.8 20.6V19.91ZM30.68 20.95C29.84 20.26 28.87 19.91 27.8 19.91V20.6C28.71 20.6 29.52 20.89 30.25 21.48L30.68 20.95ZM32.4 23.9C32.1 22.64 31.53 21.65 30.68 20.95L30.25 21.48C30.96 22.06 31.47 22.91 31.74 24.06L32.41 23.9H32.4ZM32.45 23.64H32.07V24.33H32.45V23.64ZM32.11 19.38V23.98H32.8V19.38H32.11ZM18.13 12.42H16.9V13.11H18.13V12.42ZM20.39 12.58C19.95 12.47 19.19 12.42 18.13 12.42V13.11C19.19 13.11 19.88 13.16 20.22 13.25L20.39 12.58ZM22.19 13.6C21.76 13.1 21.15 12.77 20.39 12.58L20.23 13.25C20.89 13.41 21.36 13.69 21.68 14.05L22.2 13.6H22.19ZM22.98 15.78C22.89 14.85 22.64 14.11 22.19 13.6L21.67 14.05C21.98 14.4 22.2 14.99 22.29 15.85L22.97 15.78H22.98ZM23.04 15.47H22.64V16.16H23.04V15.47ZM22.7 12V15.81H23.39V12H22.7ZM11.84 12.34H23.05V11.65H11.83V12.34H11.84ZM12.18 12.36V12H11.49V12.36H12.18ZM12.28 12.02H11.84V12.71H12.28V12.02ZM13.34 12.27C13.05 12.09 12.69 12.02 12.28 12.02V12.71C12.62 12.71 12.84 12.77 12.98 12.86L13.34 12.27ZM13.92 12.87C13.81 12.61 13.59 12.41 13.33 12.26L13 12.86C13.18 12.96 13.26 13.06 13.29 13.14L13.92 12.87ZM14.05 14.28C14.05 13.94 14.05 13.65 14.02 13.42C14 13.21 13.97 13.01 13.91 12.87L13.28 13.14C13.28 13.14 13.32 13.27 13.33 13.48C13.35 13.68 13.36 13.94 13.36 14.28H14.05ZM14.05 23.02V14.27H13.36V23.01H14.05V23.02ZM13.91 24.4C13.97 24.26 14 24.07 14.02 23.86C14.04 23.64 14.05 23.36 14.05 23.02H13.36C13.36 23.35 13.36 23.61 13.33 23.8C13.33 23.9 13.31 23.97 13.3 24.03C13.3 24.06 13.29 24.08 13.29 24.09C13.29 24.11 13.29 24.11 13.29 24.11L13.91 24.4ZM13.37 25.03C13.63 24.89 13.8 24.67 13.92 24.39L13.29 24.13C13.22 24.3 13.14 24.38 13.05 24.43L13.38 25.03H13.37ZM12.28 25.28C12.7 25.28 13.08 25.21 13.38 25.03L13.03 24.44C12.86 24.54 12.62 24.6 12.27 24.6V25.29L12.28 25.28ZM11.84 25.28H12.28V24.59H11.84V25.28ZM12.18 25.3V24.94H11.49V25.3H12.18ZM18.78 24.96H11.83V25.65H18.78V24.96ZM18.44 24.94V25.3H19.13V24.94H18.44ZM18.34 25.28H18.78V24.59H18.34V25.28ZM17.28 25.05C17.57 25.21 17.93 25.28 18.34 25.28V24.59C18 24.59 17.77 24.53 17.62 24.45L17.29 25.05H17.28ZM16.7 24.44C16.82 24.69 17.02 24.89 17.27 25.04L17.63 24.45C17.45 24.34 17.36 24.24 17.32 24.15L16.7 24.44ZM16.56 23.02C16.56 23.36 16.56 23.65 16.59 23.88C16.61 24.09 16.64 24.29 16.7 24.43L17.33 24.16C17.33 24.16 17.29 24.03 17.28 23.82C17.26 23.62 17.25 23.36 17.25 23.02H16.56ZM16.56 18.95V23.02H17.25V18.95H16.56ZM17.28 18.61H16.9V19.3H17.28V18.61ZM19.35 19.28C18.74 18.83 18.05 18.61 17.28 18.61V19.3C17.91 19.3 18.46 19.48 18.95 19.84L19.36 19.29L19.35 19.28ZM20.51 22.01C20.38 20.73 20.03 19.77 19.35 19.28L18.95 19.84C19.38 20.15 19.71 20.84 19.83 22.08L20.51 22.01ZM20.51 21.7H20.17V22.39H20.51V21.7ZM20.17 15.37V22.04H20.86V15.37H20.17ZM20.17 15.71H20.51V15.02H20.17V15.71ZM19.95 17.24C20.25 16.76 20.43 16.14 20.51 15.4L19.83 15.32C19.75 16 19.6 16.51 19.37 16.87L19.95 17.23V17.24ZM18.87 18.26C19.31 18.05 19.67 17.7 19.96 17.24L19.37 16.88C19.14 17.25 18.88 17.5 18.58 17.64L18.87 18.26ZM17.28 18.56C17.9 18.56 18.43 18.47 18.87 18.26L18.58 17.64C18.27 17.79 17.84 17.87 17.29 17.87V18.56H17.28ZM16.9 18.56H17.28V17.87H16.9V18.56ZM16.56 12.76V18.22H17.25V12.76H16.56ZM32.08 19.37V19.03H31.78L31.74 19.33L32.08 19.38V19.37ZM32.24 31.04L32.49 31.28L32.59 31.18V31.04H32.25H32.24ZM32.24 29.89H32.58V28.97L31.98 29.67L32.24 29.89ZM32.09 23.97L31.76 24.05L31.82 24.31H32.09V23.97ZM32.47 23.97V24.31H32.81V23.97H32.47ZM32.47 19.37H32.81V19.03H32.47V19.37ZM22.66 15.8L22.32 15.83L22.35 16.14H22.66V15.8ZM23.06 15.8V16.14H23.4V15.8H23.06ZM23.06 11.99H23.4V11.65H23.06V11.99ZM11.85 11.99V11.65H11.51V11.99H11.85ZM11.85 12.35H11.51V12.69H11.85V12.35ZM13.17 12.55L12.99 12.84H13L13.17 12.55ZM13.61 24.24L13.3 24.1L13.62 24.24H13.61ZM13.22 24.71L13.06 24.41H13.05L13.22 24.71ZM11.85 24.92V24.58H11.51V24.92H11.85ZM11.85 25.28H11.51V25.62H11.85V25.28ZM18.8 25.28V25.62H19.14V25.28H18.8ZM18.8 24.92H19.14V24.58H18.8V24.92ZM17.47 24.73L17.29 25.02H17.3L17.47 24.73ZM17.03 24.28L16.71 24.41L17.02 24.28H17.03ZM16.92 18.94V18.6H16.58V18.94H16.92ZM20.19 22.04L19.85 22.07L19.88 22.38H20.19V22.04ZM20.53 22.04V22.38H20.87V22.04H20.53ZM20.53 15.37H20.87V15.03H20.53V15.37ZM20.19 15.37V15.03H19.88L19.85 15.34L20.19 15.38V15.37ZM16.92 18.22H16.58V18.56H16.92V18.22ZM16.92 12.76V12.42H16.58V12.76H16.92Z" fill="black"/>
<path id="Vector_5" d="M16.89 12.77V18.23H17.27C17.86 18.23 18.34 18.14 18.71 17.97C19.08 17.8 19.4 17.5 19.65 17.08C19.91 16.66 20.08 16.1 20.16 15.39H20.5V22.06H20.16C20.04 20.8 19.7 19.97 19.14 19.57C18.59 19.17 17.97 18.96 17.27 18.96H16.89V23.03C16.89 23.71 16.93 24.13 17 24.3C17.08 24.47 17.23 24.62 17.44 24.75C17.66 24.87 17.96 24.94 18.33 24.94H18.77V25.3H11.82V24.94H12.26C12.65 24.94 12.96 24.87 13.19 24.73C13.36 24.64 13.49 24.48 13.58 24.26C13.65 24.1 13.69 23.69 13.69 23.03V14.27C13.69 13.59 13.65 13.17 13.58 13C13.51 12.83 13.36 12.68 13.14 12.56C12.92 12.43 12.63 12.36 12.26 12.36H11.82V12H23.03V15.81H22.63C22.54 14.92 22.3 14.25 21.92 13.82C21.55 13.39 21.01 13.09 20.29 12.91C19.9 12.81 19.17 12.76 18.12 12.76H16.89V12.77Z" fill="#BF1901"/>
<path id="Vector_6" d="M32.45 19.38V23.98H32.07C31.78 22.78 31.25 21.86 30.46 21.22C29.68 20.58 28.79 20.26 27.8 20.26C26.97 20.26 26.21 20.5 25.52 20.98C24.83 21.46 24.32 22.08 24 22.85C23.59 23.84 23.38 24.93 23.38 26.14C23.38 27.35 23.53 28.41 23.83 29.39C24.13 30.36 24.6 31.1 25.24 31.6C25.88 32.1 26.71 32.34 27.73 32.34C28.57 32.34 29.33 32.16 30.02 31.79C30.72 31.42 31.45 30.79 32.22 29.9V31.05C31.48 31.83 30.7 32.39 29.89 32.74C29.09 33.09 28.15 33.26 27.07 33.26C25.65 33.26 24.39 32.98 23.29 32.41C22.19 31.84 21.34 31.03 20.74 29.96C20.15 28.9 19.85 27.76 19.85 26.56C19.85 25.29 20.18 24.09 20.84 22.96C21.51 21.82 22.4 20.94 23.52 20.32C24.65 19.69 25.85 19.38 27.11 19.38C28.04 19.38 29.03 19.58 30.07 19.99C30.67 20.23 31.05 20.34 31.22 20.34C31.43 20.34 31.61 20.26 31.76 20.11C31.92 19.95 32.02 19.71 32.06 19.38H32.44H32.45Z" fill="#BF1901"/>
</g>
<defs>
<clipPath id="clip0_835_7195">
<rect width="43.44" height="47.85" fill="white"/>
</clipPath>
</defs>
</svg>
