<svg width="28" height="26" viewBox="0 0 28 26" fill="none" xmlns="http://www.w3.org/2000/svg">
<g id="35_group">
<path id="41_boolean_operation" fill-rule="evenodd" clip-rule="evenodd" d="M8.597 20.8C7.11255 20.8 5.9115 21.97 5.9115 23.4C5.9115 24.83 7.11255 26 8.597 26C10.0815 26 11.296 24.83 11.296 23.4C11.296 21.97 10.0815 20.8 8.597 20.8ZM22.092 20.8C20.6075 20.8 19.4065 21.97 19.4065 23.4C19.4065 24.83 20.6075 26 22.092 26C23.5764 26 24.791 24.83 24.791 23.4C24.791 21.97 23.5764 20.8 22.092 20.8ZM20.1352 14.3C21.1473 14.3 22.038 13.767 22.4968 12.961L27.328 4.524C27.8274 3.666 27.1796 2.6 26.154 2.6H6.18139L4.91286 0H0.5V2.6H3.199L8.05719 12.467L6.23537 15.639C5.25024 17.381 6.54575 19.5 8.59699 19.5H24.791V16.9H8.59699L10.0814 14.3H20.1352ZM7.46341 5.2H23.8598L20.1352 11.7H10.6617L7.46341 5.2Z" fill="#64748B"/>
</g>
</svg>
