<svg width="34" height="34" viewBox="0 0 34 34" fill="none" xmlns="http://www.w3.org/2000/svg">
<path d="M1 17C1 8.16344 8.16344 1 17 1C25.8366 1 33 8.16344 33 17C33 25.8366 25.8366 33 17 33C8.16344 33 1 25.8366 1 17Z" fill="white" stroke="#E7E7E7" stroke-width="0.5"/>
<path d="M17.0007 14.9C16.4437 14.9 15.9096 15.1212 15.5158 15.5151C15.1219 15.9089 14.9007 16.443 14.9007 17C14.9007 17.557 15.1219 18.0911 15.5158 18.4849C15.9096 18.8788 16.4437 19.1 17.0007 19.1C17.5577 19.1 18.0918 18.8788 18.4856 18.4849C18.8795 18.0911 19.1007 17.557 19.1007 17C19.1007 16.443 18.8795 15.9089 18.4856 15.5151C18.0918 15.1212 17.5577 14.9 17.0007 14.9ZM17.0007 13.5C17.929 13.5 18.8192 13.8687 19.4756 14.5251C20.132 15.1815 20.5007 16.0717 20.5007 17C20.5007 17.9283 20.132 18.8185 19.4756 19.4749C18.8192 20.1313 17.929 20.5 17.0007 20.5C16.0724 20.5 15.1822 20.1313 14.5258 19.4749C13.8694 18.8185 13.5007 17.9283 13.5007 17C13.5007 16.0717 13.8694 15.1815 14.5258 14.5251C15.1822 13.8687 16.0724 13.5 17.0007 13.5ZM21.5507 13.325C21.5507 13.5571 21.4585 13.7796 21.2944 13.9437C21.1303 14.1078 20.9078 14.2 20.6757 14.2C20.4436 14.2 20.2211 14.1078 20.057 13.9437C19.8929 13.7796 19.8007 13.5571 19.8007 13.325C19.8007 13.0929 19.8929 12.8704 20.057 12.7063C20.2211 12.5422 20.4436 12.45 20.6757 12.45C20.9078 12.45 21.1303 12.5422 21.2944 12.7063C21.4585 12.8704 21.5507 13.0929 21.5507 13.325ZM17.0007 11.4C15.2689 11.4 14.9861 11.4049 14.1804 11.4406C13.6316 11.4665 13.2634 11.54 12.9218 11.673C12.6359 11.778 12.3775 11.9462 12.1658 12.1651C11.9467 12.3768 11.7782 12.6352 11.673 12.9211C11.54 13.2641 11.4665 13.6316 11.4413 14.1797C11.4049 14.9525 11.4 15.2227 11.4 17C11.4 18.7325 11.4049 19.0146 11.4406 19.8203C11.4665 20.3684 11.54 20.7373 11.6723 21.0782C11.7913 21.3827 11.9313 21.6018 12.1637 21.8342C12.3996 22.0694 12.6187 22.2101 12.9197 22.3263C13.2655 22.46 13.6337 22.5342 14.1797 22.5594C14.9525 22.5958 15.2227 22.6 17 22.6C18.7325 22.6 19.0146 22.5951 19.8203 22.5594C20.3677 22.5335 20.7359 22.46 21.0782 22.3277C21.3638 22.2222 21.6221 22.0541 21.8342 21.8356C22.0701 21.6004 22.2108 21.3813 22.327 21.0796C22.46 20.7352 22.5342 20.367 22.5594 19.8196C22.5958 19.0475 22.6 18.7766 22.6 17C22.6 15.2682 22.5951 14.9854 22.5594 14.1797C22.5335 13.6323 22.4593 13.2627 22.327 12.9211C22.2215 12.6355 22.0533 12.3772 21.8349 12.1651C21.6233 11.9459 21.3649 11.7774 21.0789 11.6723C20.7359 11.5393 20.3677 11.4658 19.8203 11.4406C19.0482 11.4042 18.7787 11.4 17.0007 11.4ZM17 10C18.9019 10 19.1392 10.007 19.8861 10.042C20.6309 10.077 21.1391 10.1939 21.585 10.3675C22.047 10.5453 22.4362 10.7861 22.8254 11.1746C23.1813 11.5245 23.4568 11.9478 23.6325 12.415C23.8054 12.8609 23.923 13.3691 23.958 14.1146C23.9909 14.8608 24 15.0981 24 17C24 18.9019 23.993 19.1392 23.958 19.8854C23.923 20.6309 23.8054 21.1384 23.6325 21.585C23.4573 22.0524 23.1818 22.4758 22.8254 22.8254C22.4754 23.1812 22.0521 23.4566 21.585 23.6325C21.1391 23.8054 20.6309 23.923 19.8861 23.958C19.1392 23.9909 18.9019 24 17 24C15.0981 24 14.8608 23.993 14.1139 23.958C13.3691 23.923 12.8616 23.8054 12.415 23.6325C11.9476 23.4571 11.5243 23.1817 11.1746 22.8254C10.8186 22.4755 10.5432 22.0522 10.3675 21.585C10.1939 21.1391 10.077 20.6309 10.042 19.8854C10.0084 19.1392 10 18.9019 10 17C10 15.0981 10.007 14.8608 10.042 14.1146C10.077 13.3691 10.1939 12.8616 10.3675 12.415C10.5427 11.9475 10.8182 11.5241 11.1746 11.1746C11.5244 10.8185 11.9477 10.543 12.415 10.3675C12.8609 10.1939 13.3684 10.077 14.1139 10.042C14.8615 10.0091 15.0981 10 17 10Z" fill="#637381"/>
</svg>
