<svg width="34" height="34" viewBox="0 0 34 34" fill="none" xmlns="http://www.w3.org/2000/svg">
<path d="M16.8862 32.7723C25.6598 32.7723 32.7723 25.6598 32.7723 16.8862C32.7723 8.11248 25.6598 1 16.8862 1C8.11248 1 1 8.11248 1 16.8862C1 25.6598 8.11248 32.7723 16.8862 32.7723Z" fill="white" stroke="#E7E7E7" stroke-width="0.5"/>
<path d="M22.1612 11H11.875C11.3889 11 11 11.3871 11 11.871V22.129C11 22.5935 11.3889 23 11.875 23H22.1223C22.6084 23 22.9973 22.6129 22.9973 22.129V11.8516C23.0362 11.3871 22.6473 11 22.1612 11ZM14.5584 21.2H12.7889V15.4903H14.5584V21.2ZM13.6639 14.6968C13.0806 14.6968 12.6333 14.2323 12.6333 13.671C12.6333 13.1097 13.1 12.6452 13.6639 12.6452C14.2278 12.6452 14.6945 13.1097 14.6945 13.671C14.6945 14.2323 14.2667 14.6968 13.6639 14.6968ZM21.2667 21.2H19.4973V18.4323C19.4973 17.7742 19.4778 16.9032 18.5639 16.9032C17.6306 16.9032 17.4945 17.6387 17.4945 18.3742V21.2H15.725V15.4903H17.4556V16.2839H17.4751C17.7278 15.8194 18.2917 15.3548 19.1667 15.3548C20.9751 15.3548 21.3056 16.5161 21.3056 18.1032V21.2H21.2667Z" fill="#637381"/>
</svg>
