<svg width="34" height="34" viewBox="0 0 34 34" fill="none" xmlns="http://www.w3.org/2000/svg">
<path d="M1 17C1 8.16344 8.16344 1 17 1C25.8366 1 33 8.16344 33 17C33 25.8366 25.8366 33 17 33C8.16344 33 1 25.8366 1 17Z" fill="white" stroke="#E7E7E7" stroke-width="0.5"/>
<path d="M20.5204 12.1933C19.9973 11.5864 19.709 10.8069 19.7092 10H17.3444V19.6444C17.3261 20.1664 17.1093 20.6607 16.7396 21.0234C16.3699 21.3861 15.8761 21.5888 15.3622 21.5889C14.2755 21.5889 13.3724 20.6867 13.3724 19.5667C13.3724 18.2289 14.6429 17.2256 15.9515 17.6378V15.18C13.3112 14.8222 11 16.9067 11 19.5667C11 22.1567 13.1122 24 15.3546 24C17.7577 24 19.7092 22.0167 19.7092 19.5667V14.6744C20.6681 15.3743 21.8194 15.7498 23 15.7478V13.3444C23 13.3444 21.5612 13.4144 20.5204 12.1933Z" fill="#637381"/>
</svg>
